<?xml version="1.0" encoding="UTF-8" ?>

<svg
   xmlns="http://www.w3.org/2000/svg"
   width="203"
   height="25"
   viewBox="0 0 203 25"
>
    <path id="background" style="fill:#808b96" stroke="black" d="M0,0 203,0 203,25 0,25 z" />

    <g>
    <path
        id="al"
        d="M 11.457108,10.532842 9.5728881,15.52716 c -0.045403,0 -0.090806,0 -0.1362087,0 -0.3745739,0 -0.5221333,0.09081 -0.5221333,0.385925 0,0.340521 0.1589101,0.397275 0.5788869,0.397275 h 1.452893 c 0.431327,0 0.646991,-0.03405 0.646991,-0.397275 0,-0.317821 -0.204313,-0.385925 -0.635641,-0.385925 h -0.533484 l 0.476731,-1.316684 h 2.814979 l 0.533484,1.316684 h -0.510783 c -0.431327,0 -0.624289,0.0681 -0.624289,0.385925 0,0.363223 0.215663,0.397275 0.658342,0.397275 h 1.509646 c 0.363223,0 0.499432,-0.07945 0.499432,-0.397275 0,-0.30647 -0.136209,-0.385925 -0.522134,-0.385925 -0.03405,0 -0.05675,0 -0.09081,0 L 13.000806,10.112865 C 12.853247,9.7496419 12.705688,9.7382912 12.387867,9.7382912 h -1.57775 c -0.522133,0 -0.771849,0 -0.771849,0.3972748 0,0.30647 0.192962,0.397276 0.612939,0.397276 z m -0.283768,2.939837 1.066968,-2.939837 1.203177,2.939837 z"
        />
    <path
        id="br"
        d="m 19.079828,16.31036 c 0.136209,0 0.272417,0 0.397275,0 0.692395,0 1.293983,-0.03405 1.850168,-0.442678 0.46538,-0.351873 0.726447,-0.874006 0.726447,-1.452893 0,-0.79455 -0.374574,-1.305333 -1.180476,-1.589101 0.499432,-0.283768 0.749148,-0.726446 0.749148,-1.305333 0,-1.135073 -0.805901,-1.7820638 -2.406353,-1.7820638 h -2.587965 c -0.249716,0 -0.385925,0.1362087 -0.385925,0.3972748 0,0.363224 0.192963,0.397276 0.669693,0.397276 h 0.181612 v 4.994318 h -0.192963 c -0.488081,0 -0.692394,0.01135 -0.692394,0.385925 0,0.261066 0.124858,0.397275 0.385925,0.397275 z m -1.112371,-3.734388 v -2.04313 h 1.373438 c 0.874005,0 1.328034,0.374574 1.328034,1.021565 0,0.703745 -0.510782,1.021565 -1.543698,1.021565 z m 0,2.951188 v -2.270145 h 1.282632 c 1.214527,0 1.838817,0.227015 1.838817,1.135073 0,0.885356 -0.62429,1.135072 -1.895571,1.135072 z"
       />
    <path
        id="ch"
        d="M 27.724113,9.9199028 C 27.190629,9.6928883 26.691197,9.5680303 26.180415,9.5680303 c -1.838817,0 -3.178203,1.4869447 -3.178203,3.4619707 0,2.031779 1.362087,3.439269 3.155501,3.439269 0.715096,0 1.305334,-0.192962 1.918273,-0.590238 0.408626,-0.261066 0.624289,-0.442678 0.624289,-0.692394 0,-0.227014 -0.17026,-0.397275 -0.408626,-0.397275 -0.192962,0 -0.419976,0.249716 -0.7832,0.454029 -0.431327,0.238365 -0.896707,0.363223 -1.305333,0.363223 -1.237229,0 -2.190689,-0.964811 -2.190689,-2.576614 0,-1.748011 0.885356,-2.712823 2.167988,-2.712823 0.737797,0 1.305333,0.408626 1.441542,0.930759 0.124858,0.499432 0.0681,0.77185 0.544834,0.77185 0.329171,0 0.397276,-0.14756 0.397276,-0.442679 0,-0.07946 -0.0227,-0.522133 -0.0227,-1.373437 0,-0.3859248 -0.0227,-0.5561856 -0.408626,-0.5561856 -0.215664,0 -0.329171,0.079455 -0.408626,0.2724174 z"
        />
    <path
        id="de"
        d="m 31.476237,16.31036 c 0.283768,0 0.544835,0.0227 0.7832,0.0227 1.157774,0 1.952324,-0.215663 2.542562,-0.828602 0.590238,-0.612939 0.919408,-1.475594 0.919408,-2.474458 0,-2.04313 -1.203176,-3.2917098 -3.019292,-3.2917098 -0.215664,0 -0.62429,0 -1.225878,0 h -0.874006 c -0.442678,0 -0.658342,0.022701 -0.658342,0.3972748 0,0.30647 0.15891,0.397276 0.533484,0.397276 0.0454,0 0.09081,0 0.136209,0 v 4.994318 c -0.05675,0 -0.102157,0 -0.147559,0 -0.374574,0 -0.522134,0.07945 -0.522134,0.385925 0,0.261066 0.136209,0.397275 0.408626,0.397275 0.113508,0 0.181612,0 0.249716,0 z m 0,-0.7832 v -4.994318 c 0.227014,-0.0227 0.442678,-0.0227 0.646991,-0.0227 1.861519,0 2.678771,0.749148 2.678771,2.519861 0,1.748011 -0.817252,2.531211 -2.633368,2.531211 -0.215664,0 -0.454029,-0.01135 -0.692394,-0.03405 z"
        />
    <path
        id="ec"
        d="m 37.260139,16.31036 h 4.574342 c 0.249716,0 0.385924,-0.147559 0.385924,-0.408626 v -1.396139 c 0,-0.374574 -0.0681,-0.544835 -0.385924,-0.544835 -0.363223,0 -0.397276,0.204313 -0.397276,0.669693 v 0.896707 h -2.951188 v -2.451756 h 1.452893 c 0,0.05675 0,0.113507 0,0.15891 0,0.47673 0.05675,0.681043 0.351872,0.681043 0.329171,0 0.351873,-0.204313 0.351873,-0.646991 V 12.23545 c 0,-0.454029 -0.0454,-0.658342 -0.351873,-0.658342 -0.283768,0 -0.363223,0.15891 -0.363223,0.533484 0,0.0227 0.01135,0.124858 0.01135,0.295119 h -1.452893 v -1.872869 h 2.951188 v 0.79455 c 0,0.102157 0,0.158911 0,0.181612 0,0.340522 0.102157,0.488081 0.397276,0.488081 0.306469,0 0.385924,-0.15891 0.385924,-0.510782 v -1.305334 c 0,-0.2951184 -0.136208,-0.4426778 -0.385924,-0.4426778 h -4.574342 c -0.442678,0 -0.669692,0.022701 -0.669692,0.3972748 0,0.351873 0.192962,0.397276 0.669692,0.397276 h 0.351873 v 4.994318 h -0.351873 c -0.47673,0 -0.669692,0.03405 -0.669692,0.385925 0,0.261066 0.136208,0.397275 0.408626,0.397275 0.113507,0 0.204313,0 0.261067,0 z"
        />
    <path
        id="fo"
        d="m 46.415206,15.52716 h -0.964811 v -2.451756 h 1.464243 c 0,0.05675 0,0.113507 0,0.15891 0,0.47673 0.05675,0.681043 0.351873,0.681043 0.272417,0 0.340521,-0.147559 0.340521,-0.488081 v -1.407489 c 0,-0.30647 -0.102156,-0.442679 -0.340521,-0.442679 -0.295119,0 -0.351873,0.204313 -0.351873,0.681044 0,0.0454 0,0.102156 0,0.147559 h -1.464243 v -1.872869 h 3.007942 v 0.79455 c 0,0.102157 0,0.158911 0,0.181612 0,0.340522 0.102156,0.488081 0.397275,0.488081 0.261067,0 0.385925,-0.136209 0.385925,-0.385924 v -1.430192 c 0,-0.2951184 -0.136209,-0.4426778 -0.385925,-0.4426778 h -4.903513 c -0.249715,0 -0.385924,0.1362087 -0.385924,0.3972748 0,0.272418 0.136209,0.397276 0.442678,0.397276 0.03405,0 0.102157,0 0.215664,0 h 0.351872 v 4.994318 h -0.351872 c -0.102157,0 -0.15891,0 -0.181612,0 -0.340521,0 -0.47673,0.09081 -0.47673,0.385925 0,0.261066 0.136209,0.397275 0.385924,0.397275 h 2.735525 c 0.249716,0 0.385924,-0.136209 0.385924,-0.397275 0,-0.272418 -0.136208,-0.385925 -0.442678,-0.385925 -0.03405,0 -0.102156,0 -0.215664,0 z"
        />
    <path
        id="go"
        d="m 55.048142,15.356899 c -0.499432,0.227015 -0.94211,0.351873 -1.384788,0.351873 -1.373438,0 -2.395003,-1.010215 -2.395003,-2.678771 0,-1.748011 0.874006,-2.724174 2.167989,-2.724174 0.681043,0 1.214527,0.351873 1.475594,0.919409 0.124857,0.261067 0.136208,0.510782 0.488081,0.510782 0.31782,0 0.419976,-0.136208 0.419976,-0.488081 0,-0.295118 0,-0.544834 0,-0.749147 0,-0.6583423 -0.0454,-0.874006 -0.431327,-0.874006 -0.215664,0 -0.329171,0.090806 -0.408626,0.2724173 -0.533484,-0.2270145 -1.032916,-0.3405217 -1.543698,-0.3405217 -1.850168,0 -3.178203,1.4982954 -3.178203,3.4733214 0,2.065832 1.305333,3.45062 3.314411,3.45062 0.953461,0 1.793414,-0.249716 2.145287,-0.454029 0.15891,-0.09081 0.170261,-0.15891 0.170261,-0.31782 0,-0.0454 0,-0.09081 0,-0.136209 v -1.532348 c 0.0227,0 0.0454,0 0.0681,0 0.31782,0 0.419977,-0.0908 0.419977,-0.363223 0,-0.249716 -0.09081,-0.363223 -0.283768,-0.363223 h -2.395003 c -0.272417,0 -0.351872,0.07945 -0.351872,0.363223 0,0.238365 0.102156,0.363223 0.31782,0.363223 h 1.384788 z"
        />
    <path
        id="ho"
        d="m 58.788912,15.52716 v -2.304197 h 2.65607 v 2.304197 c -0.102157,0 -0.192963,0 -0.272418,0 -0.488081,0 -0.692394,0.0681 -0.692394,0.385925 0,0.374574 0.227015,0.397275 0.692394,0.397275 h 1.135073 c 0.454029,0 0.669692,-0.0227 0.669692,-0.397275 0,-0.30647 -0.147559,-0.385925 -0.522133,-0.385925 -0.0454,0 -0.09081,0 -0.147559,0 v -4.994318 c 0.0454,0 0.09081,0 0.136208,0 0.374574,0 0.533484,-0.09081 0.533484,-0.397276 0,-0.2610661 -0.136208,-0.3972748 -0.408626,-0.3972748 -0.124858,0 -0.215663,0 -0.261066,0 h -1.08967 c -0.499432,0 -0.737797,0 -0.737797,0.3972748 0,0.295119 0.181612,0.397276 0.590238,0.397276 0.249716,0 0.374574,0 0.374574,0 v 1.929623 h -2.65607 v -1.929623 c 0.09081,0 0.170261,0 0.249716,0 0.499432,0 0.715096,-0.06811 0.715096,-0.397276 0,-0.3745734 -0.215664,-0.3972748 -0.681043,-0.3972748 h -1.157774 c -0.442678,0 -0.658342,0.022701 -0.658342,0.3972748 0,0.30647 0.15891,0.397276 0.533484,0.397276 0.0454,0 0.09081,0 0.136208,0 v 4.994318 c -0.05675,0 -0.102156,0 -0.147559,0 -0.374574,0 -0.522133,0.07945 -0.522133,0.385925 0,0.261066 0.136208,0.397275 0.408626,0.397275 0.113507,0 0.181611,0 0.249716,0 h 1.214527 c 0.419977,0 0.62429,-0.0454 0.62429,-0.397275 0,-0.295119 -0.181612,-0.397276 -0.590238,-0.397276 -0.249716,0 -0.374574,0.01135 -0.374574,0.01135 z"
        />
    <path
        id="in"
        d="m 68.625025,15.52716 h -1.24858 v -4.994318 h 1.24858 c 0.47673,0 0.669693,-0.0454 0.669693,-0.397276 0,-0.2610661 -0.136209,-0.3972748 -0.408626,-0.3972748 -0.124858,0 -0.215664,0 -0.261067,0 h -3.359814 c -0.442678,0 -0.669693,0.022701 -0.669693,0.3972748 0,0.351873 0.192962,0.397276 0.669693,0.397276 h 1.237229 v 4.994318 h -1.237229 c -0.476731,0 -0.669693,0.03405 -0.669693,0.385925 0,0.261066 0.136209,0.397275 0.408626,0.397275 0.06811,0 0.15891,0 0.261067,0 h 3.359814 c 0.454029,0 0.669693,-0.0227 0.669693,-0.397275 0,-0.351873 -0.192963,-0.385925 -0.669693,-0.385925 z"
        />
    <path
        id="ju"
        d="m 74.613242,10.532842 v 3.405217 c 0,1.248579 -0.397275,1.827466 -1.452892,1.827466 -0.703745,0 -1.191826,-0.374574 -1.350736,-0.94211 -0.05675,-0.238365 -0.06811,-0.454029 -0.06811,-0.63564 0,-0.0227 0,-0.0454 0,-0.05675 0,-0.170261 0,-0.306469 -0.0454,-0.408626 -0.05675,-0.124858 -0.181611,-0.204313 -0.363223,-0.204313 -0.363223,0 -0.363223,0.215664 -0.363223,0.578887 v 1.305333 c 0,0.31782 0.0227,0.419977 0.30647,0.578887 0.612939,0.329171 1.237228,0.488081 1.940973,0.488081 1.657206,0 2.270145,-0.760498 2.270145,-2.395003 v -3.541425 h 0.715095 c 0.476731,0 0.658342,-0.0454 0.658342,-0.397276 0,-0.2610661 -0.124858,-0.3972748 -0.397275,-0.3972748 -0.113507,0 -0.204313,0 -0.261067,0 h -3.087396 c -0.442679,0 -0.669693,0.022701 -0.669693,0.3972748 0,0.351873 0.192962,0.397276 0.669693,0.397276 z"
        />
    <path
        id="ki"
        d="m 79.466383,15.52716 v -1.736661 l 0.612939,-0.578886 c 0.544835,0.07945 0.976163,0.522133 1.430191,1.350736 0.510783,0.930759 0.7832,1.441541 0.839954,1.532347 0.102156,0.170261 0.170261,0.215664 0.419977,0.215664 h 0.533484 c 0.249716,0 0.385924,-0.136209 0.385924,-0.397275 0,-0.30647 -0.147559,-0.385925 -0.522133,-0.385925 -0.0454,0 -0.102156,0 -0.15891,0 -0.919409,-1.736661 -1.486945,-2.746875 -2.326898,-2.917136 l 2.145286,-2.077182 c 0.03405,0 0.05675,0 0.09081,0 0.408626,0 0.578887,-0.07946 0.578887,-0.397276 0,-0.2610661 -0.136209,-0.3972748 -0.385925,-0.3972748 h -1.634504 c -0.283768,0 -0.397275,0.1135072 -0.397275,0.3972748 0,0.283769 0.15891,0.408627 0.510783,0.408627 0.05675,0 0.124857,0 0.192962,-0.01135 l -2.315548,2.258794 v -2.258794 c 0.09081,0 0.170261,0 0.249716,0 0.499432,0 0.715096,-0.06811 0.715096,-0.397276 0,-0.3405212 -0.170261,-0.3972748 -0.556186,-0.3972748 h -1.89557 c -0.249716,0 -0.385925,0.1362087 -0.385925,0.3972748 0,0.272418 0.136209,0.397276 0.442678,0.397276 0.03405,0 0.102157,0 0.215664,0 h 0.351872 v 4.994318 H 78.25186 c -0.102157,0 -0.15891,0 -0.181612,0 -0.340521,0 -0.47673,0.09081 -0.47673,0.385925 0,0.261066 0.136209,0.397275 0.385925,0.397275 h 1.89557 c 0.385925,0 0.556186,-0.05675 0.556186,-0.397275 0,-0.295119 -0.181612,-0.397276 -0.590238,-0.397276 -0.249716,0 -0.374574,0.01135 -0.374574,0.01135 z"
        />
    <path
        id="li"
        d="m 89.518159,14.074267 v 1.452893 h -2.951188 v -4.994318 h 0.93076 c 0.465379,0 0.669692,-0.03405 0.669692,-0.397276 0,-0.2610661 -0.136208,-0.3972748 -0.408626,-0.3972748 -0.0454,0 -0.136208,0 -0.261066,0 h -2.497159 c -0.442679,0 -0.658342,0.022701 -0.658342,0.3972748 0,0.351873 0.181611,0.397276 0.658342,0.397276 h 0.692394 v 4.994318 h -0.692394 c -0.476731,0 -0.658342,0.03405 -0.658342,0.385925 0,0.261066 0.124858,0.397275 0.397275,0.397275 0.113507,0 0.204313,0 0.261067,0 h 4.914863 c 0.249716,0 0.397275,-0.147559 0.397275,-0.408626 v -1.827467 c 0,-0.454028 -0.0227,-0.658341 -0.397275,-0.658341 -0.351873,0 -0.397276,0.181611 -0.397276,0.658341 z"
        />
    <path
        id="mi"
        d="M 94.269148,13.586186 93.05462,10.112865 C 92.952464,9.829097 92.770852,9.7382912 92.453032,9.7382912 h -0.908058 c -0.238365,0 -0.363223,0.1362087 -0.363223,0.3745738 0,0.295119 0.14756,0.374574 0.533484,0.374574 0.03405,0 0.05675,0 0.09081,0 l -0.15891,5.039721 c -0.06811,0 -0.124858,0 -0.181612,0 -0.397275,0 -0.544834,0.07945 -0.544834,0.385925 0,0.261066 0.124857,0.397275 0.385924,0.397275 h 1.555049 c 0.385925,0 0.556186,-0.05675 0.556186,-0.397275 0,-0.295119 -0.181612,-0.397276 -0.590238,-0.397276 -0.249716,0 -0.374574,0.01135 -0.374574,0.01135 l 0.102157,-4.767304 1.112371,3.189554 c 0.102156,0.306469 0.249715,0.408626 0.556185,0.408626 0.31782,0 0.46538,-0.102157 0.567536,-0.408626 l 1.08967,-3.189554 0.124858,4.767304 c -0.07946,0 -0.158911,0 -0.238366,0 -0.465379,0 -0.669692,0.0681 -0.669692,0.385925 0,0.340521 0.170261,0.397275 0.556185,0.397275 h 1.555049 c 0.261067,0 0.385925,-0.136209 0.385925,-0.397275 0,-0.30647 -0.14756,-0.385925 -0.544835,-0.385925 -0.05675,0 -0.113507,0 -0.181612,0 l -0.15891,-5.039721 c 0.03405,0 0.05675,0 0.09081,0 0.385925,0 0.533484,-0.07945 0.533484,-0.374574 0,-0.2383651 -0.124858,-0.3745738 -0.363223,-0.3745738 h -0.919409 c -0.31782,0 -0.499431,0.090806 -0.601588,0.3745738 z"
        />
    <path
        id="no"
        d="m 99.576322,15.52716 v -4.528939 l 2.951188,5.085124 c 0.18161,0.30647 0.17026,0.317821 0.47673,0.317821 0.0227,0 0.0454,0 0.0681,0 0.27242,0 0.40863,-0.01135 0.40863,-0.283768 v -5.584556 c 0.0227,0 0.0567,0 0.0795,0 0.40862,0 0.55618,-0.09081 0.55618,-0.397276 0,-0.2610661 -0.12486,-0.3972748 -0.39727,-0.3972748 -0.12486,0 -0.21567,0 -0.26107,0 h -1.32804 c -0.40862,0 -0.60158,0.045403 -0.60158,0.3972748 0,0.283769 0.18161,0.397276 0.56753,0.397276 0.20432,0 0.32917,0 0.39728,0 h 0.21566 v 4.381379 L 99.916843,10.090164 C 99.746583,9.7836941 99.678478,9.7382912 99.315255,9.7382912 h -0.522133 c -0.612939,0 -0.930759,0.011351 -0.930759,0.3972748 0,0.351873 0.283768,0.397276 0.930759,0.397276 v 4.994318 c -0.03405,0 -0.06811,0 -0.102157,0 -0.397275,0 -0.556185,0.0681 -0.556185,0.385925 0,0.261066 0.124858,0.397275 0.397275,0.397275 0.0454,0 0.136209,0 0.261067,0 h 1.384788 c 0.44268,0 0.64699,-0.03405 0.64699,-0.397275 0,-0.283768 -0.18161,-0.385925 -0.56753,-0.385925 -0.0681,0 -0.19297,0 -0.39728,0 z"
        />
    <path
        id="os"
        d="m 107.91413,15.697421 c -1.19182,0 -1.99773,-0.953461 -1.99773,-2.678771 0,-1.72531 0.77185,-2.67877 1.99773,-2.67877 1.19183,0 1.99773,0.95346 1.99773,2.67877 0,1.72531 -0.8059,2.678771 -1.99773,2.678771 z m 2.99659,-2.678771 c 0,-2.04313 -1.25993,-3.4619704 -2.99659,-3.4619704 -1.75936,0 -2.99659,1.4188404 -2.99659,3.4619704 0,2.03178 1.28263,3.461971 2.99659,3.461971 1.73666,0 2.99659,-1.418841 2.99659,-3.461971 z"
        />
    <path
        id="pa"
        d="m 114.96932,15.52716 h -1.15778 v -1.691258 h 0.96481 c 1.82747,0 2.74688,-0.703745 2.74688,-2.04313 0,-1.339385 -0.91941,-2.0544808 -2.74688,-2.0544808 h -2.56526 c -0.26107,0 -0.38592,0.1362087 -0.38592,0.3972748 0,0.374574 0.21566,0.397276 0.72644,0.397276 h 0.38593 v 4.994318 h -0.7151 c -0.27242,0 -0.39727,0.124858 -0.39727,0.385925 0,0.261066 0.12485,0.397275 0.38592,0.397275 h 2.71282 c 0.38593,0 0.55619,-0.05675 0.55619,-0.397275 0,-0.272418 -0.15891,-0.385925 -0.51078,-0.385925 z m -1.15778,-4.994318 h 1.02157 c 1.15777,0 1.74801,0.419977 1.74801,1.282632 0,0.862655 -0.59024,1.293982 -1.74801,1.293982 h -1.02157 z"
        />
    <path
        id="qu"
        d="m 121.57047,15.68607 c -1.15777,0 -1.99772,-0.94211 -1.99772,-2.66742 0,-1.72531 0.83995,-2.67877 1.99772,-2.67877 1.15778,0 1.99773,0.95346 1.99773,2.67877 0,1.72531 -0.8513,2.66742 -1.99773,2.66742 z m -0.874,0.612939 c -0.57889,0.578887 -0.94211,0.862655 -0.94211,1.055617 0,0.192963 0.21566,0.408627 0.37457,0.408627 0.22702,0 0.68104,-0.397276 1.39614,-0.397276 0.59024,0 1.15777,0.363223 1.77071,0.363223 0.53349,0 1.04427,-0.329171 1.04427,-0.544834 0,-0.204313 -0.15891,-0.397276 -0.31782,-0.397276 -0.21566,0 -0.44268,0.204313 -0.7605,0.204313 -0.40863,0 -0.8286,-0.261066 -1.30533,-0.261066 -0.56754,0 -1.01022,0.113507 -1.37344,0.261066 l 0.59024,-0.578887 c 0.12486,0.01135 0.23836,0.01135 0.36322,0.01135 1.79341,0 3.03064,-1.350736 3.03064,-3.405217 0,-1.975026 -1.31668,-3.4619704 -2.99659,-3.4619704 -1.6799,0 -2.99659,1.4755944 -2.99659,3.4506194 0,1.634505 0.85131,2.928487 2.12259,3.29171 z"
        />
    <path
        id="ro"
        d="m 127.16141,15.52716 v -2.065832 h 0.72645 c 0.51078,0 0.70375,0.181612 1.10102,0.7832 l 1.07832,1.611803 c 0.19296,0.283768 0.28377,0.454029 0.57889,0.454029 h 0.61294 c 0.26106,0 0.38592,-0.136209 0.38592,-0.397275 0,-0.30647 -0.14756,-0.385925 -0.53348,-0.385925 -0.0568,0 -0.11351,0 -0.18162,0 l -1.11237,-1.702608 c -0.12485,-0.181612 -0.26106,-0.329171 -0.47673,-0.46538 0.94211,-0.238365 1.4756,-0.885357 1.4756,-1.72531 0,-0.556185 -0.23837,-1.078319 -0.62429,-1.41884 -0.51078,-0.4426786 -1.20318,-0.4767308 -2.14529,-0.4767308 h -2.33825 c -0.24971,0 -0.38592,0.1248579 -0.38592,0.3745738 0,0.261067 0.13621,0.374574 0.45403,0.374574 0.0454,0 0.10215,0 0.20431,0 h 0.31782 v 5.039721 h -0.31782 c -0.10216,0 -0.15891,0 -0.18161,0 -0.34052,0 -0.47673,0.09081 -0.47673,0.385925 0,0.261066 0.13621,0.397275 0.38592,0.397275 h 1.86152 c 0.38593,0 0.55619,-0.05675 0.55619,-0.397275 0,-0.295119 -0.18162,-0.397276 -0.59024,-0.397276 -0.24972,0 -0.37458,0.01135 -0.37458,0.01135 z m 0,-5.039721 h 1.18048 c 1.02156,0 1.521,0.374574 1.521,1.123722 0,0.726446 -0.52214,1.11237 -1.55505,1.11237 h -1.14643 z"
        />
    <path
        id="si"
        d="m 133.60366,16.117398 c 0.55619,0.249716 1.06697,0.385924 1.6345,0.385924 1.55505,0 2.55392,-0.828603 2.55392,-2.054481 0,-1.044266 -0.65834,-1.668556 -1.95233,-1.838817 l -0.88535,-0.113507 c -0.85131,-0.113507 -1.27128,-0.442678 -1.27128,-0.998864 0,-0.703745 0.60158,-1.203176 1.50964,-1.203176 0.59024,0 1.06697,0.227014 1.30534,0.578887 0.23836,0.351872 0.17026,0.760498 0.61293,0.760498 0.26107,0 0.41998,-0.147559 0.41998,-0.408626 0,-0.0227 0,-0.03405 0,-0.05675 l -0.0795,-1.157773 c -0.0227,-0.2951193 -0.0568,-0.4199772 -0.45403,-0.4199772 -0.24972,0 -0.35188,0.068104 -0.35188,0.2837681 -0.51078,-0.2043131 -0.95346,-0.329171 -1.40749,-0.329171 -1.43019,0 -2.45175,0.8967071 -2.45175,1.9977271 0,1.112371 0.72644,1.645855 2.20204,1.850168 l 0.81725,0.113507 c 0.70375,0.102157 1.07832,0.46538 1.07832,1.044267 0,0.681043 -0.62429,1.203177 -1.6118,1.203177 -0.79455,0 -1.37344,-0.317821 -1.61181,-0.805902 -0.20431,-0.408626 -0.14756,-0.839953 -0.61293,-0.839953 -0.34053,0 -0.43133,0.15891 -0.43133,0.47673 0,0.03405 0,0.0681 0,0.113507 l 0.0681,1.282632 c 0.0227,0.397275 0.15891,0.578887 0.47673,0.578887 0.30647,0 0.40863,-0.113507 0.44268,-0.442678 z"
        />
    <path
        id="ta"
        d="m 139.97779,11.974384 0.0454,-1.441542 h 1.5891 v 4.994318 h -0.83995 c -0.10216,0 -0.15891,0 -0.18162,0 -0.34052,0 -0.47673,0.09081 -0.47673,0.385925 0,0.261066 0.13621,0.397275 0.38593,0.397275 h 3.1101 c 0.24971,0 0.38592,-0.136209 0.38592,-0.397275 0,-0.272418 -0.13621,-0.385925 -0.44268,-0.385925 -0.0341,0 -0.10215,0 -0.21566,0 h -0.85131 v -4.994318 h 1.58911 l 0.0567,1.441542 c 0.0113,0.47673 0.0454,0.646991 0.43133,0.646991 0.24971,0 0.38592,-0.136209 0.38592,-0.397275 0,-0.0227 -0.0113,-0.102157 -0.0113,-0.272418 l -0.0567,-1.827466 c -0.0114,-0.2724176 -0.13621,-0.3859248 -0.41998,-0.3859248 h -4.81271 c -0.28376,0 -0.40862,0.1135072 -0.41997,0.3859248 l -0.0568,1.827466 c -0.0113,0.170261 -0.0113,0.261067 -0.0113,0.261067 0,0.272417 0.13621,0.408626 0.38593,0.408626 0.38592,0 0.41997,-0.170261 0.43132,-0.646991 z"
        />
    <path
        id="un"
        d="m 146.48815,10.532842 v 3.473321 c 0,1.555049 0.96481,2.485809 2.395,2.485809 1.6118,0 2.40635,-0.885357 2.40635,-2.690122 v -3.269008 c 0.0227,0 0.0568,0 0.0795,0 0.40862,0 0.55618,-0.09081 0.55618,-0.397276 0,-0.2610661 -0.12486,-0.3972748 -0.39727,-0.3972748 -0.0908,0 -0.17026,0 -0.26107,0 h -1.22588 c -0.40862,0 -0.60159,0.045403 -0.60159,0.3972748 0,0.329171 0.21567,0.397276 0.72645,0.397276 0.0908,0 0.19296,0 0.29512,0 v 3.14415 c 0,1.350736 -0.40863,2.020429 -1.521,2.020429 -0.55618,0 -1.04426,-0.261067 -1.30533,-0.715096 -0.24972,-0.442678 -0.24972,-0.885356 -0.24972,-1.407489 v -3.041994 c 0.0908,0 0.17026,0 0.23837,0 0.48808,0 0.69239,-0.06811 0.69239,-0.397276 0,-0.3859241 -0.22701,-0.3972748 -0.69239,-0.3972748 h -1.13507 c -0.44268,0 -0.6697,0.022701 -0.6697,0.3972748 0,0.30647 0.15891,0.397276 0.53349,0.397276 0.0454,0 0.0908,0 0.13621,0 z"
        />
    <path
        id="vi"
        d="m 152.96444,10.532842 2.04313,5.221333 c 0.14756,0.385924 0.22702,0.624289 0.60159,0.624289 h 0.30647 c 0.27242,0 0.38593,-0.227014 0.53349,-0.624289 l 1.99772,-5.221333 c 0.0227,0 0.0454,0 0.0681,0 0.37457,0 0.52213,-0.102157 0.52213,-0.397276 0,-0.2610661 -0.13621,-0.3972748 -0.38592,-0.3972748 h -1.73666 c -0.38593,0 -0.55619,0.056754 -0.55619,0.3972748 0,0.272418 0.15891,0.397276 0.51078,0.397276 h 0.7378 l -1.83882,4.835408 -1.88422,-4.835408 h 0.61294 c 0.35187,0 0.51078,-0.124858 0.51078,-0.397276 0,-0.3405212 -0.17026,-0.3972748 -0.55618,-0.3972748 h -1.67991 c -0.24971,0 -0.38592,0.1362087 -0.38592,0.3972748 0,0.317821 0.15891,0.397276 0.57888,0.397276 z"
        />
    <path
        id="wh"
        d="m 161.1093,14.89152 -0.60159,-4.404081 h 0.7832 c 0.32917,0 0.48808,-0.113507 0.48808,-0.374574 0,-0.3064695 -0.17026,-0.3745738 -0.53348,-0.3745738 h -1.79342 c -0.15891,0 -0.30647,0.1362087 -0.30647,0.3745738 0,0.249716 0.14756,0.374574 0.43133,0.374574 0.0227,0 0.0454,0 0.0681,0 l 0.83995,5.527802 c 0.0227,0.181612 0.0454,0.295119 0.23836,0.295119 h 0.41998 c 0.19296,0 0.24972,-0.05675 0.29512,-0.227015 l 1.06697,-3.825193 1.20317,3.813843 c 0.0568,0.170261 0.13621,0.238365 0.30647,0.238365 h 0.39728 c 0.15891,0 0.19296,-0.09081 0.21566,-0.283768 l 0.77185,-5.539153 c 0.0227,0 0.0454,0 0.0681,0 0.28376,0 0.43132,-0.124858 0.43132,-0.374574 0,-0.2383651 -0.14756,-0.3745738 -0.30647,-0.3745738 h -1.79341 c -0.36322,0 -0.53348,0.068104 -0.53348,0.3745738 0,0.261067 0.15891,0.374574 0.48808,0.374574 h 0.874 l -0.54483,4.404081 -1.07832,-3.337113 c -0.0681,-0.204313 -0.12486,-0.249716 -0.35187,-0.249716 h -0.24972 c -0.23836,0 -0.28377,0.0681 -0.34052,0.272417 z"
        />
    <path
        id="xr"
        d="m 167.02941,10.532842 1.77071,2.429055 -1.87287,2.565263 c -0.32917,0.01135 -0.48808,0.124858 -0.48808,0.385925 0,0.238365 0.15891,0.397275 0.40863,0.397275 h 1.47559 c 0.34053,0 0.48808,-0.0681 0.48808,-0.397275 0,-0.30647 -0.17026,-0.397276 -0.59023,-0.397276 -0.0908,0 -0.19296,0 -0.29512,0.01135 l 1.39614,-1.952324 1.41884,1.952324 c -0.0908,0 -0.18161,-0.01135 -0.26107,-0.01135 -0.40862,0 -0.56753,0.09081 -0.56753,0.397276 0,0.329171 0.14755,0.397275 0.48808,0.397275 h 1.47559 c 0.24972,0 0.41998,-0.15891 0.41998,-0.397275 0,-0.249716 -0.15891,-0.374574 -0.47673,-0.385925 l -1.92963,-2.599316 1.77072,-2.395002 c 0.34052,0 0.48808,-0.113507 0.48808,-0.397276 0,-0.2610661 -0.12486,-0.3972748 -0.38593,-0.3972748 h -1.39614 c -0.27241,0 -0.44267,0.1589101 -0.44267,0.3972748 0,0.249716 0.20431,0.408627 0.57888,0.408627 0.0454,0 0.11351,0 0.17026,-0.01135 l -1.30533,1.782063 -1.25993,-1.782063 c 0.0567,0.01135 0.11351,0.01135 0.15891,0.01135 0.32917,0 0.51078,-0.158911 0.51078,-0.408627 0,-0.2610661 -0.13621,-0.3972748 -0.40862,-0.3972748 h -1.39614 c -0.26107,0 -0.38593,0.1362087 -0.38593,0.3972748 0,0.272418 0.12486,0.385925 0.44268,0.397276 z"
        />
    <path
        id="ya"
        d="m 177.41036,15.52716 h -0.8059 v -1.759362 l 1.88422,-3.234956 c 0.0341,0 0.0568,0 0.0908,0 0.40863,0 0.56754,-0.07946 0.56754,-0.397276 0,-0.3632226 -0.19296,-0.3972748 -0.65834,-0.3972748 h -0.87401 c -0.0567,0 -0.10215,0 -0.14756,0 -0.44268,0 -0.61294,0.022701 -0.61294,0.3972748 0,0.30647 0.14756,0.408627 0.54484,0.408627 0.0681,0 0.14756,-0.01135 0.22701,-0.01135 l -1.39614,2.406353 -1.33938,-2.406353 c 0.0681,0 0.12486,0 0.18161,0 0.44268,0 0.63564,-0.07946 0.63564,-0.397276 0,-0.3405212 -0.17026,-0.3972748 -0.55619,-0.3972748 h -1.27128 c -0.44267,0 -0.66969,0.022701 -0.66969,0.3972748 0,0.317821 0.17026,0.397276 0.57889,0.397276 0.0341,0 0.0567,0 0.0908,0 l 1.85017,3.155501 v 1.838817 h -0.8059 c -0.49943,0 -0.66969,0.0454 -0.66969,0.385925 0,0.340521 0.17026,0.397275 0.59024,0.397275 h 2.63336 c 0.43133,0 0.60159,-0.05675 0.60159,-0.397275 0,-0.351873 -0.19296,-0.385925 -0.66969,-0.385926 z"
        />
    <path
        id="zu"
        d="m 181.73002,10.532842 h 2.3496 l -3.1782,4.619744 c -0.18161,0.261067 -0.27242,0.476731 -0.27242,0.658342 0,0.295119 0.21566,0.499432 0.53348,0.499432 h 3.48468 c 0.28376,0 0.40862,-0.102157 0.41997,-0.374574 l 0.0795,-1.679907 c 0,-0.0681 0.0113,-0.136209 0.0113,-0.204313 0,-0.329171 -0.11351,-0.47673 -0.39728,-0.47673 -0.39727,0 -0.40862,0.17026 -0.43132,0.658342 l -0.0568,1.293982 h -2.57661 l 3.28036,-4.755953 c 0.13621,-0.204313 0.20431,-0.385925 0.20431,-0.556185 0,-0.3178207 -0.21566,-0.4767308 -0.65834,-0.4767308 h -3.17821 c -0.28376,0 -0.40862,0.1135072 -0.41997,0.3859248 l -0.0681,1.532347 c 0,0.0454 0,0.09081 0,0.124858 0,0.05675 0,0.09081 0,0.102157 0,0.306469 0.11351,0.454029 0.38593,0.454029 0.28377,0 0.41998,-0.113507 0.41998,-0.385925 0,-0.0227 0,-0.113507 0.0113,-0.261066 z"
        />
  </g>
</svg>
