<?xml version="1.0" encoding="UTF-8"?>
<svg
    xmlns="http://www.w3.org/2000/svg"
    viewBox="0 0 210 175"
    height="175"
    width="210"
    >
    <path
        id="background"
        d="M 0,0 210,0 210,175 0,175 Z"
        style="fill:#bbbbbb"
        />
    <path
        id="triangle"
        d="M 182.80682,148.6959 131.36491,97.979117 199.08573,76.748629 Z"
        style="fill:#0000ff"
        />
    <path
        id="square"
        d="m 87.710665,110.71349 57.083035,0.0412 -0.0417,59.69552 -57.083043,-0.0412 z"
        style="fill:#ffff00"
        />
    <path
        id="star"
        d="M 51.946247,72.097215 34.141826,56.515243 11.77393,63.019687 20.442849,40.496624 7.6154172,20.259883 30.77752,21.921817 45.217629,2.9103615 50.863681,26.46061 72.615594,34.947601 52.942946,47.840512 Z"
        style="fill:#00ff00"
        />
    <path
        id="hexagon"
        d="m 79.752575,130.81759 -33.947397,4.16397 -20.421982,-28.66281 13.52542,-32.826817 33.947402,-4.16396 20.421977,28.662859 z"
        style="fill:#ff0000"
        />
    <path
        id="yangswirl"
        d="m 127.43331,7.5660141 a 28.289675,29.584394 0 0 0 -1.01929,59.1159329 14.144837,14.792196 0 0 1 1.01929,-29.530326 14.145426,14.792812 0 0 0 0,-29.5856069 z m -1.01929,59.1159329 a 14.144837,14.792196 0 0 0 1.01929,0.05298 28.289675,29.584394 0 0 1 -1.01929,-0.05298 z m 0.90981,-48.198032 a 3.7223251,3.8926828 0 0 1 3.72228,3.892682 3.7223251,3.8926828 0 0 1 -3.72228,3.892623 3.7223251,3.8926828 0 0 1 -3.72228,-3.892623 3.7223251,3.8926828 0 0 1 3.72228,-3.892682 z"
        style="fill:#ffffff"
        />
    <path
        id="yindot"
        d="m 131.0464,22.376832 a 3.7223252,3.892683 0 0 1 -3.72233,3.892682 3.7223252,3.892683 0 0 1 -3.72232,-3.892682 3.7223252,3.892683 0 0 1 3.72232,-3.892682 3.7223252,3.892683 0 0 1 3.72233,3.892682 z"
        />
    <path
        id="yinswirl"
        d="m 127.48239,7.542289 a 28.289675,29.584394 0 0 1 0.97209,0.052984 14.144842,14.792202 0 0 0 -0.97209,-0.052984 z m 0.97209,0.052984 a 14.144842,14.792202 0 0 1 -0.98153,29.532328 14.144838,14.792197 0 0 0 -0.01,29.583664 28.289675,29.584394 0 0 0 0.99097,-59.115992 z M 127.72777,48.5588 a 3.7223251,3.8926828 0 0 1 3.72228,3.892623 3.7223251,3.8926828 0 0 1 -3.72228,3.892623 3.7223251,3.8926828 0 0 1 -3.72228,-3.892623 3.7223251,3.8926828 0 0 1 3.72228,-3.892623 z"
        />
    <path
        id="yangdot"
        d="m 131.45004,52.346985 a 3.7223252,3.892683 0 0 1 -3.72233,3.892682 3.7223252,3.892683 0 0 1 -3.72232,-3.892682 3.7223252,3.892683 0 0 1 3.72232,-3.892681 3.7223252,3.892683 0 0 1 3.72233,3.892681 z"
        style="fill:#ffffff"
        />
</svg>
